<svg id="svg" version="1.1" xmlns="http://www.w3.org/2000/svg" xmlns:xlink="http://www.w3.org/1999/xlink" width="400" height="400" viewBox="0, 0, 400,400"><g id="svgg"><path id="path0" d="M37.600 157.333 L 37.600 158.667 41.733 158.667 L 45.867 158.667 45.867 157.333 L 45.867 156.000 41.733 156.000 L 37.600 156.000 37.600 157.333 M46.667 157.333 L 46.667 158.667 52.400 158.667 L 58.133 158.667 58.133 157.333 L 58.133 156.000 52.400 156.000 L 46.667 156.000 46.667 157.333 M58.933 157.333 L 58.933 158.667 64.267 158.667 L 69.600 158.667 69.600 157.333 L 69.600 156.000 64.267 156.000 L 58.933 156.000 58.933 157.333 M37.600 161.467 L 37.600 163.200 38.667 163.200 L 39.733 163.200 39.733 161.467 L 39.733 159.733 38.667 159.733 L 37.600 159.733 37.600 161.467 M40.533 161.467 L 40.533 163.200 46.133 163.200 L 51.733 163.200 51.733 161.467 L 51.733 159.733 46.133 159.733 L 40.533 159.733 40.533 161.467 M52.267 161.467 L 52.267 163.200 57.867 163.200 L 63.467 163.200 63.467 161.467 L 63.467 159.733 57.867 159.733 L 52.267 159.733 52.267 161.467 M64.000 161.467 L 64.000 163.200 66.800 163.200 L 69.600 163.200 69.600 161.467 L 69.600 159.733 66.800 159.733 L 64.000 159.733 64.000 161.467 M37.600 165.467 L 37.600 167.200 41.733 167.200 L 45.867 167.200 45.867 165.467 L 45.867 163.733 41.733 163.733 L 37.600 163.733 37.600 165.467 M46.667 165.467 L 46.667 167.200 52.400 167.200 L 58.133 167.200 58.133 165.467 L 58.133 163.733 52.400 163.733 L 46.667 163.733 46.667 165.467 M58.933 165.467 L 58.933 167.200 64.267 167.200 L 69.600 167.200 69.600 165.467 L 69.600 163.733 64.267 163.733 L 58.933 163.733 58.933 165.467 M37.600 169.733 L 37.600 171.467 38.667 171.467 L 39.733 171.467 39.733 169.733 L 39.733 168.000 38.667 168.000 L 37.600 168.000 37.600 169.733 M40.533 169.733 L 40.533 171.467 46.133 171.467 L 51.733 171.467 51.733 169.733 L 51.733 168.000 46.133 168.000 L 40.533 168.000 40.533 169.733 M52.267 169.733 L 52.267 171.467 57.867 171.467 L 63.467 171.467 63.467 169.733 L 63.467 168.000 57.867 168.000 L 52.267 168.000 52.267 169.733 M64.000 169.733 L 64.000 171.467 66.800 171.467 L 69.600 171.467 69.600 169.733 L 69.600 168.000 66.800 168.000 L 64.000 168.000 64.000 169.733 M37.600 173.600 L 37.600 174.933 41.733 174.933 L 45.867 174.933 45.867 173.600 L 45.867 172.267 41.733 172.267 L 37.600 172.267 37.600 173.600 M46.667 173.600 L 46.667 174.933 52.400 174.933 L 58.133 174.933 58.133 173.600 L 58.133 172.267 52.400 172.267 L 46.667 172.267 46.667 173.600 M58.933 173.600 L 58.933 174.933 64.267 174.933 L 69.600 174.933 69.600 173.600 L 69.600 172.267 64.267 172.267 L 58.933 172.267 58.933 173.600 M37.600 177.467 L 37.600 179.200 38.667 179.200 L 39.733 179.200 39.733 177.467 L 39.733 175.733 38.667 175.733 L 37.600 175.733 37.600 177.467 M40.533 177.467 L 40.533 179.200 46.133 179.200 L 51.733 179.200 51.733 177.467 L 51.733 175.733 46.133 175.733 L 40.533 175.733 40.533 177.467 M52.267 177.467 L 52.267 179.200 57.867 179.200 L 63.467 179.200 63.467 177.467 L 63.467 175.733 57.867 175.733 L 52.267 175.733 52.267 177.467 M64.000 177.467 L 64.000 179.200 66.800 179.200 L 69.600 179.200 69.600 177.467 L 69.600 175.733 66.800 175.733 L 64.000 175.733 64.000 177.467 M37.600 181.333 L 37.600 182.667 41.733 182.667 L 45.867 182.667 45.867 181.333 L 45.867 180.000 41.733 180.000 L 37.600 180.000 37.600 181.333 M46.667 181.333 L 46.667 182.667 52.400 182.667 L 58.133 182.667 58.133 181.333 L 58.133 180.000 52.400 180.000 L 46.667 180.000 46.667 181.333 M58.933 181.333 L 58.933 182.667 64.267 182.667 L 69.600 182.667 69.600 181.333 L 69.600 180.000 64.267 180.000 L 58.933 180.000 58.933 181.333 M37.600 184.533 L 37.600 185.867 38.667 185.867 L 39.733 185.867 39.733 184.533 L 39.733 183.200 38.667 183.200 L 37.600 183.200 37.600 184.533 M40.533 184.533 L 40.533 185.867 46.133 185.867 L 51.733 185.867 51.733 184.533 L 51.733 183.200 46.133 183.200 L 40.533 183.200 40.533 184.533 M52.267 184.533 L 52.267 185.867 57.867 185.867 L 63.467 185.867 63.467 184.533 L 63.467 183.200 57.867 183.200 L 52.267 183.200 52.267 184.533 M64.000 184.533 L 64.000 185.867 66.800 185.867 L 69.600 185.867 69.600 184.533 L 69.600 183.200 66.800 183.200 L 64.000 183.200 64.000 184.533 M37.600 188.133 L 37.600 189.867 41.733 189.867 L 45.867 189.867 45.867 188.133 L 45.867 186.400 41.733 186.400 L 37.600 186.400 37.600 188.133 M46.667 188.133 L 46.667 189.867 52.400 189.867 L 58.133 189.867 58.133 188.133 L 58.133 186.400 52.400 186.400 L 46.667 186.400 46.667 188.133 M58.933 188.133 L 58.933 189.867 64.951 189.867 C 71.780 189.867,71.219 190.117,70.095 187.576 L 69.575 186.400 64.254 186.400 L 58.933 186.400 58.933 188.133 M37.600 192.133 L 37.600 193.867 38.667 193.867 L 39.733 193.867 39.733 192.133 L 39.733 190.400 38.667 190.400 L 37.600 190.400 37.600 192.133 M40.533 192.133 L 40.533 193.867 46.133 193.867 L 51.733 193.867 51.733 192.133 L 51.733 190.400 46.133 190.400 L 40.533 190.400 40.533 192.133 M52.267 192.133 L 52.267 193.867 57.867 193.867 L 63.467 193.867 63.467 192.133 L 63.467 190.400 57.867 190.400 L 52.267 190.400 52.267 192.133 M64.000 192.133 L 64.000 193.867 68.400 193.867 C 71.089 193.867,72.800 193.765,72.800 193.606 C 72.800 193.462,72.475 192.682,72.078 191.873 L 71.356 190.400 67.678 190.400 L 64.000 190.400 64.000 192.133 M38.231 195.755 C 38.321 196.206,38.590 196.986,38.828 197.488 L 39.261 198.400 43.097 198.400 L 46.933 198.400 46.933 196.667 L 46.933 194.933 42.500 194.933 L 38.067 194.933 38.231 195.755 M47.733 196.667 L 47.733 198.400 53.067 198.400 L 58.400 198.400 58.400 196.667 L 58.400 194.933 53.067 194.933 L 47.733 194.933 47.733 196.667 M58.933 196.667 L 58.933 198.400 65.067 198.400 L 71.200 198.400 71.200 196.667 L 71.200 194.933 65.067 194.933 L 58.933 194.933 58.933 196.667 M71.733 196.648 C 71.733 198.739,72.323 199.105,72.806 197.313 C 73.210 195.810,73.063 195.085,72.333 194.981 C 71.763 194.901,71.733 194.984,71.733 196.648 M40.057 199.519 C 40.627 200.377,41.067 200.422,41.067 199.622 C 41.067 199.057,40.942 198.933,40.367 198.933 C 39.707 198.933,39.690 198.966,40.057 199.519 M41.430 199.334 C 40.361 202.119,48.150 203.542,50.670 201.022 C 51.089 200.603,51.800 200.187,52.249 200.097 C 52.813 199.984,53.067 199.778,53.067 199.433 C 53.067 198.743,41.693 198.646,41.430 199.334 M54.133 199.496 C 54.133 199.973,54.242 200.031,54.851 199.878 C 55.246 199.779,57.436 199.700,59.718 199.703 C 63.952 199.708,64.800 199.621,64.800 199.182 C 64.800 199.037,62.588 198.933,59.467 198.933 C 54.220 198.933,54.133 198.942,54.133 199.496 M65.382 199.640 C 65.628 201.696,69.966 202.102,71.708 200.233 C 72.808 199.052,72.540 198.933,68.782 198.933 L 65.298 198.933 65.382 199.640 M37.615 204.229 C 37.601 207.264,37.637 207.509,38.067 207.336 C 38.323 207.233,39.523 207.083,40.733 207.003 C 43.252 206.837,43.640 206.369,41.994 205.482 C 41.080 204.990,39.398 203.316,38.215 201.722 L 37.630 200.933 37.615 204.229 M43.200 206.692 C 43.200 207.049,43.388 207.200,43.833 207.200 C 44.181 207.200,44.976 207.380,45.600 207.600 C 46.224 207.820,46.779 208.000,46.834 208.000 C 46.888 208.000,46.933 207.820,46.933 207.600 C 46.933 207.378,46.697 207.200,46.403 207.200 C 46.111 207.200,45.271 206.972,44.536 206.692 C 43.222 206.193,43.200 206.193,43.200 206.692 M37.600 210.933 C 37.600 211.358,37.776 211.465,38.467 211.461 L 39.333 211.455 38.667 210.933 C 37.818 210.270,37.600 210.270,37.600 210.933 M37.600 213.600 L 37.600 215.467 42.667 215.467 L 47.733 215.467 47.733 214.514 C 47.733 213.161,47.177 212.663,46.208 213.152 C 44.396 214.065,43.166 213.882,41.242 212.414 C 40.552 211.888,40.038 211.733,38.975 211.733 L 37.600 211.733 37.600 213.600 M37.600 217.733 L 37.600 219.467 38.800 219.467 L 40.000 219.467 40.000 217.733 L 40.000 216.000 38.800 216.000 L 37.600 216.000 37.600 217.733 M40.800 217.733 L 40.800 219.467 43.957 219.467 C 47.533 219.467,47.733 219.338,47.733 217.054 L 47.733 216.000 44.267 216.000 L 40.800 216.000 40.800 217.733 M37.600 221.467 L 37.600 222.933 41.303 222.933 C 45.432 222.933,45.867 222.731,45.867 220.809 L 45.867 220.000 41.733 220.000 L 37.600 220.000 37.600 221.467 M37.600 225.200 L 37.600 226.933 38.800 226.933 L 40.000 226.933 40.000 225.200 L 40.000 223.467 38.800 223.467 L 37.600 223.467 37.600 225.200 M40.800 225.200 L 40.800 226.933 42.400 226.933 C 43.743 226.933,44.001 226.858,44.008 226.467 C 44.013 226.210,44.193 225.767,44.408 225.482 C 44.624 225.198,44.800 224.628,44.800 224.216 L 44.800 223.467 42.800 223.467 L 40.800 223.467 40.800 225.200 M37.600 228.933 L 37.600 230.667 42.800 230.667 C 46.089 230.667,48.000 230.569,48.000 230.400 C 48.000 230.253,47.784 230.133,47.519 230.133 C 46.418 230.133,44.246 228.764,44.087 227.970 L 43.933 227.200 40.767 227.200 L 37.600 227.200 37.600 228.933 M37.600 232.400 L 37.600 233.867 40.267 233.867 L 42.933 233.867 42.933 232.400 L 42.933 230.933 40.267 230.933 L 37.600 230.933 37.600 232.400 M43.200 232.384 L 43.200 233.867 47.895 233.867 C 52.067 233.867,52.572 233.820,52.429 233.445 C 52.340 233.213,52.267 232.572,52.267 232.021 L 52.267 231.019 47.733 230.960 L 43.200 230.900 43.200 232.384 M37.600 234.667 C 37.600 235.183,37.778 235.200,43.067 235.200 C 48.356 235.200,48.533 235.183,48.533 234.667 C 48.533 234.151,48.356 234.133,43.067 234.133 C 37.778 234.133,37.600 234.151,37.600 234.667 M49.067 234.667 C 49.067 235.156,49.244 235.200,51.200 235.200 C 53.414 235.200,53.652 235.101,52.867 234.505 C 52.054 233.888,49.067 234.015,49.067 234.667 " stroke="none" fill="#f35c2d" fill-rule="evenodd"></path><path id="path1" d="M93.200 155.716 L 91.067 155.867 93.333 157.028 C 99.322 160.098,108.091 167.014,110.818 170.818 C 116.503 178.750,119.379 195.654,115.726 199.657 C 112.139 203.587,112.189 208.534,115.857 212.710 L 117.067 214.086 117.067 219.583 L 117.067 225.080 116.333 225.363 C 111.495 227.228,102.441 227.400,96.867 225.732 L 95.467 225.313 95.467 219.819 L 95.467 214.326 96.557 213.143 C 98.918 210.582,99.695 207.317,98.711 204.095 C 97.779 201.044,97.812 201.067,94.252 201.067 C 91.378 201.067,91.200 201.036,91.200 200.533 C 91.200 200.015,91.022 200.000,84.701 200.000 L 78.202 200.000 78.031 201.286 C 77.821 202.870,76.713 204.669,75.215 205.855 L 74.082 206.752 75.610 207.225 C 77.691 207.869,77.777 207.999,77.077 209.445 C 76.219 211.217,73.918 212.620,72.850 212.023 C 72.518 211.837,72.587 211.718,73.221 211.388 C 73.649 211.164,74.360 210.594,74.800 210.121 L 75.600 209.261 74.841 209.442 C 74.391 209.549,73.930 209.497,73.708 209.312 C 73.405 209.061,73.333 209.115,73.333 209.594 C 73.333 209.919,72.973 210.522,72.533 210.933 C 71.608 211.797,71.486 212.533,72.267 212.533 C 72.965 212.533,72.948 212.969,72.234 213.351 L 71.669 213.653 71.848 223.427 C 72.068 235.460,71.963 234.773,73.561 234.573 C 74.243 234.488,82.420 234.405,91.733 234.387 C 114.122 234.346,116.737 234.127,123.590 231.713 C 137.515 226.809,142.237 210.041,132.549 199.904 C 130.081 197.322,124.419 193.600,122.958 193.600 C 122.379 193.600,122.691 193.188,123.712 192.606 C 135.784 185.713,135.573 165.669,123.365 159.729 C 116.958 156.612,104.309 154.929,93.200 155.716 M70.293 171.267 C 70.392 179.663,70.487 186.549,70.503 186.568 C 70.858 186.971,89.600 186.764,89.600 186.357 C 89.600 185.915,89.852 185.867,92.132 185.867 L 94.663 185.867 95.456 184.772 C 100.148 178.295,96.637 169.236,86.344 161.257 L 84.267 159.647 84.267 157.824 L 84.267 156.000 77.190 156.000 L 70.113 156.000 70.293 171.267 M156.400 156.171 C 155.227 156.224,151.687 156.447,148.533 156.667 C 145.380 156.887,142.590 157.067,142.333 157.067 C 141.891 157.067,141.867 159.098,141.867 196.000 L 141.867 234.933 154.000 234.933 L 166.133 234.933 166.133 221.988 L 166.133 209.042 167.920 209.121 L 169.706 209.200 173.477 217.600 C 178.361 228.479,179.963 231.090,183.211 233.475 C 186.990 236.249,193.857 236.935,202.733 235.427 L 204.533 235.121 204.533 226.266 L 204.533 217.410 202.525 217.258 C 198.530 216.956,197.951 216.396,194.124 209.116 L 191.511 204.144 193.546 203.072 C 201.110 199.088,203.826 189.418,201.703 174.032 C 199.624 158.963,188.868 154.722,156.400 156.171 M260.400 156.171 C 253.931 156.909,250.782 157.664,247.333 159.308 C 238.896 163.330,235.575 170.312,236.096 182.933 C 236.648 196.308,239.226 198.959,257.512 204.959 C 268.634 208.608,269.068 208.898,269.066 212.684 C 269.064 215.395,267.876 216.586,264.400 217.362 C 262.518 217.783,248.028 217.872,241.267 217.505 L 237.067 217.277 237.067 226.105 C 237.067 230.961,237.097 234.934,237.133 234.934 C 237.170 234.935,239.000 235.107,241.200 235.318 C 280.043 239.035,292.060 232.842,291.363 209.467 C 290.933 195.063,288.193 192.140,270.400 187.109 C 259.119 183.919,258.399 183.467,258.400 179.582 C 258.401 176.175,259.904 175.027,264.872 174.636 C 267.533 174.426,283.652 174.741,286.037 175.049 L 286.874 175.157 287.060 167.645 C 287.163 163.514,287.207 159.473,287.157 158.667 L 287.067 157.200 284.933 157.014 C 274.671 156.121,264.042 155.756,260.400 156.171 M208.000 196.000 L 208.000 234.933 219.867 234.933 L 231.733 234.933 231.733 196.000 L 231.733 157.067 219.867 157.067 L 208.000 157.067 208.000 196.000 M294.933 196.000 L 294.933 234.933 307.067 234.933 L 319.200 234.933 319.200 219.867 L 319.200 204.800 321.547 204.800 L 323.894 204.800 327.590 212.733 C 329.623 217.097,332.002 222.107,332.876 223.867 C 338.560 235.308,343.996 237.728,358.867 235.434 L 360.800 235.136 360.800 226.272 L 360.800 217.409 359.197 217.242 C 355.436 216.849,354.862 216.147,348.981 204.742 L 344.269 195.603 352.710 176.535 C 357.352 166.047,361.200 157.376,361.259 157.264 C 361.319 157.153,355.535 157.093,348.407 157.131 L 335.445 157.200 333.496 162.133 C 332.423 164.847,329.779 171.537,327.619 177.000 L 323.691 186.933 321.446 186.933 L 319.200 186.933 319.200 172.000 L 319.200 157.067 307.067 157.067 L 294.933 157.067 294.933 196.000 M175.867 174.716 C 178.044 175.896,178.450 176.996,178.604 182.144 C 178.865 190.888,177.915 192.065,170.467 192.227 L 166.133 192.321 166.133 183.201 L 166.133 174.080 170.600 174.181 C 174.072 174.260,175.245 174.379,175.867 174.716 " stroke="none" fill="#046c35" fill-rule="evenodd"></path><path id="path2" d="M37.469 195.802 C 36.890 199.538,38.781 203.566,41.998 205.451 C 43.459 206.308,43.962 206.339,42.576 205.487 C 41.230 204.660,39.829 203.307,39.034 202.067 C 37.885 200.273,37.149 196.195,37.928 195.935 C 38.177 195.852,38.185 195.671,37.961 195.180 C 37.683 194.573,37.653 194.611,37.469 195.802 M38.300 196.800 C 38.505 197.652,39.482 199.274,39.673 199.082 C 39.753 199.002,39.631 198.726,39.401 198.468 C 39.171 198.211,38.792 197.580,38.561 197.067 C 38.300 196.491,38.200 196.389,38.300 196.800 M40.321 200.154 C 40.718 200.585,41.438 201.164,41.921 201.440 C 42.955 202.031,42.746 201.812,40.933 200.405 C 39.842 199.558,39.731 199.513,40.321 200.154 M48.800 202.348 C 48.800 203.060,47.272 207.073,47.018 207.029 C 44.996 206.682,44.935 206.685,46.119 207.074 C 47.529 207.537,47.454 207.614,48.435 204.667 C 48.825 203.493,49.200 202.383,49.268 202.200 C 49.335 202.017,49.258 201.867,49.095 201.867 C 48.933 201.867,48.800 202.083,48.800 202.348 M45.533 202.588 C 45.863 202.652,46.403 202.652,46.733 202.588 C 47.063 202.525,46.793 202.473,46.133 202.473 C 45.473 202.473,45.203 202.525,45.533 202.588 M60.840 205.107 C 60.641 205.789,60.100 206.749,59.637 207.240 C 58.138 208.830,57.381 209.973,56.926 211.333 C 56.397 212.917,53.676 218.592,52.675 220.200 C 52.287 220.823,52.031 221.333,52.105 221.333 C 52.522 221.333,54.883 217.470,56.279 214.503 C 58.854 209.031,58.982 208.802,59.770 208.241 C 60.181 207.948,61.031 207.612,61.659 207.495 C 62.738 207.293,62.761 207.271,62.079 207.082 C 61.418 206.898,61.352 206.757,61.279 205.374 L 61.200 203.867 60.840 205.107 M69.224 207.227 C 67.570 207.898,66.576 208.604,65.851 209.622 L 65.280 210.423 65.907 211.349 C 67.300 213.408,69.837 214.265,71.867 213.363 L 72.933 212.889 71.944 212.528 L 70.954 212.167 72.010 211.263 C 72.794 210.592,73.067 210.157,73.067 209.579 C 73.067 208.729,73.356 208.584,73.855 209.186 C 74.089 209.468,74.347 209.506,74.821 209.325 C 76.329 208.752,75.246 210.289,73.333 211.438 L 72.400 211.998 73.280 211.999 C 74.906 212.001,76.580 210.648,77.302 208.749 C 77.594 207.980,77.507 207.926,74.427 206.953 C 73.030 206.512,70.682 206.635,69.224 207.227 M75.533 207.655 C 77.275 208.143,77.305 208.213,76.422 209.720 C 75.868 210.665,75.322 211.110,74.000 211.692 C 73.853 211.757,74.183 211.386,74.733 210.869 C 76.008 209.670,76.103 208.739,74.926 208.975 C 74.360 209.088,73.967 208.998,73.610 208.675 C 73.044 208.163,72.473 208.332,72.707 208.942 C 73.111 209.996,71.445 211.733,70.030 211.733 C 69.223 211.733,69.598 212.182,70.674 212.504 C 72.046 212.915,71.799 213.334,70.184 213.332 C 67.885 213.331,65.290 210.975,66.297 209.804 C 68.569 207.165,71.419 206.501,75.533 207.655 M60.429 209.348 C 60.054 209.793,59.617 210.662,59.457 211.279 C 59.298 211.895,59.009 212.959,58.815 213.643 L 58.464 214.887 59.299 214.378 C 61.082 213.290,61.447 214.103,60.630 217.333 C 60.327 218.527,60.968 217.556,61.577 215.898 C 61.893 215.035,62.448 213.825,62.809 213.208 C 63.566 211.918,63.650 211.061,63.045 210.829 C 62.433 210.594,62.428 210.599,62.483 211.389 C 62.527 212.021,62.416 212.131,61.591 212.271 C 61.073 212.359,60.503 212.521,60.324 212.631 C 59.930 212.875,59.923 212.688,60.280 211.403 C 60.583 210.311,61.163 209.871,62.316 209.858 C 63.045 209.850,63.052 209.838,62.533 209.439 C 61.326 208.508,61.142 208.500,60.429 209.348 M62.266 219.200 C 62.154 220.300,62.045 221.920,62.024 222.800 L 61.985 224.400 60.259 225.562 L 58.533 226.723 59.695 226.554 C 62.615 226.128,63.344 224.961,63.123 221.067 C 62.916 217.432,62.532 216.593,62.266 219.200 M51.600 222.586 C 50.637 222.938,48.827 222.951,46.800 222.620 C 46.006 222.491,45.940 223.568,46.709 224.106 C 48.086 225.071,50.232 224.873,52.093 223.610 C 53.415 222.713,53.974 223.455,53.097 224.942 C 52.596 225.790,52.590 225.872,53.013 226.111 C 54.176 226.767,52.894 227.082,50.266 226.785 C 49.065 226.650,48.406 226.713,47.629 227.037 C 46.461 227.526,45.873 227.281,45.858 226.301 C 45.850 225.737,45.847 225.737,45.447 226.266 C 44.269 227.825,45.407 228.488,47.733 227.597 C 49.098 227.075,51.106 227.324,53.301 228.288 C 54.739 228.919,56.148 228.961,56.371 228.378 C 56.660 227.625,56.548 227.294,55.602 226.104 C 55.090 225.460,54.595 224.513,54.501 224.000 C 54.141 222.037,53.695 221.819,51.600 222.586 " stroke="none" fill="#eeefef" fill-rule="evenodd"></path><path id="path3" d="M73.112 194.457 C 74.055 200.091,69.896 203.547,65.647 200.660 C 64.462 199.854,60.864 199.681,60.267 200.400 C 59.792 200.972,59.401 200.894,59.600 200.267 C 59.799 199.641,59.873 199.648,56.667 200.006 C 54.814 200.213,54.166 200.395,53.824 200.804 C 53.257 201.482,53.067 201.473,53.067 200.767 C 53.067 199.924,51.540 200.288,50.634 201.347 C 49.544 202.622,48.382 206.543,48.831 207.434 C 49.424 208.613,49.429 208.683,48.885 208.200 C 48.117 207.520,47.551 207.620,47.382 208.467 C 47.278 208.991,47.380 209.314,47.741 209.600 C 48.388 210.112,49.075 211.768,49.038 212.725 C 49.015 213.315,48.958 213.236,48.757 212.342 C 48.508 211.227,47.387 209.986,46.902 210.286 C 46.773 210.366,46.667 209.956,46.667 209.375 C 46.667 207.238,39.845 206.698,37.210 208.626 C 36.378 209.235,38.666 211.278,40.587 211.641 L 41.467 211.807 40.667 210.936 C 39.953 210.158,39.934 210.099,40.497 210.391 C 40.844 210.571,41.468 210.668,41.883 210.607 C 42.299 210.546,42.584 210.585,42.517 210.693 C 42.296 211.050,43.225 211.733,43.930 211.733 C 45.167 211.733,44.267 212.127,42.713 212.265 L 41.200 212.400 41.905 212.879 C 43.524 213.978,45.599 213.785,46.407 212.460 C 46.868 211.704,46.931 211.672,46.932 212.191 C 46.933 212.521,47.185 212.916,47.505 213.087 C 48.684 213.718,47.763 220.038,46.265 221.602 C 44.797 223.134,43.623 227.895,44.510 228.721 C 45.258 229.418,48.886 230.659,50.731 230.849 L 52.214 231.002 52.394 232.443 C 52.510 233.370,52.781 234.103,53.154 234.498 L 53.733 235.112 62.000 234.779 C 66.547 234.596,70.495 234.436,70.773 234.423 C 71.220 234.403,71.265 214.376,70.820 213.931 C 70.780 213.891,70.187 213.834,69.501 213.804 C 66.932 213.693,64.420 210.971,65.676 209.660 C 66.603 208.692,66.610 208.726,65.224 207.396 C 63.455 205.698,63.194 201.742,64.885 202.259 C 67.513 203.062,69.339 202.952,71.472 201.864 C 72.536 201.321,72.559 201.320,72.287 201.829 C 71.379 203.526,68.839 204.815,66.133 204.951 C 64.306 205.043,64.092 205.612,65.346 207.040 C 66.349 208.183,66.599 208.202,68.943 207.320 C 75.315 204.922,77.347 200.480,74.497 195.182 C 73.191 192.753,72.793 192.545,73.112 194.457 M37.876 197.657 C 37.847 201.501,40.773 205.054,45.122 206.455 C 47.267 207.146,47.126 207.244,48.094 204.379 L 48.732 202.492 46.700 202.605 C 43.050 202.809,40.161 201.102,38.563 197.799 L 37.886 196.400 37.876 197.657 M62.477 207.055 L 63.333 207.575 61.984 207.723 C 60.056 207.936,59.281 208.555,58.355 210.622 C 55.640 216.686,52.789 221.600,51.986 221.600 C 51.689 221.600,51.946 220.870,52.552 219.994 C 53.291 218.924,55.371 214.668,56.392 212.134 C 57.300 209.883,58.612 207.794,59.682 206.896 C 59.969 206.656,60.488 205.636,60.835 204.630 L 61.467 202.800 61.544 204.668 C 61.617 206.451,61.659 206.559,62.477 207.055 M69.886 207.511 C 68.629 207.872,66.695 209.246,66.337 210.032 C 65.701 211.428,68.825 213.599,70.884 213.192 L 71.867 212.998 70.467 212.598 C 68.752 212.109,68.723 211.936,70.282 211.519 C 71.935 211.077,72.910 210.082,72.703 209.049 C 72.523 208.150,73.094 207.968,73.875 208.674 C 74.214 208.981,74.492 209.018,75.002 208.825 C 76.290 208.335,76.352 209.175,75.133 210.581 L 74.267 211.581 75.139 210.968 C 76.063 210.319,77.221 208.394,76.833 208.153 C 75.567 207.371,71.638 207.008,69.886 207.511 M62.457 209.267 L 63.570 210.000 62.254 210.133 C 60.881 210.272,60.636 210.518,60.132 212.267 C 59.975 212.812,60.004 212.872,60.290 212.600 C 60.483 212.417,61.029 212.267,61.504 212.267 C 62.455 212.267,62.892 211.852,62.430 211.390 C 61.959 210.919,62.082 210.667,62.782 210.667 C 63.857 210.667,63.867 211.511,62.817 213.490 C 62.297 214.470,61.668 215.915,61.420 216.702 C 60.665 219.100,60.182 218.163,60.836 215.567 C 61.263 213.873,60.902 213.600,59.397 214.482 L 58.226 215.168 58.704 213.784 C 58.967 213.023,59.187 212.124,59.191 211.787 C 59.206 210.760,60.521 208.533,61.114 208.533 C 61.241 208.533,61.845 208.863,62.457 209.267 M63.264 220.534 C 63.722 224.744,62.977 226.059,59.801 226.653 C 58.166 226.958,57.866 226.746,59.067 226.133 C 61.613 224.835,61.766 224.593,61.952 221.551 C 62.278 216.215,62.755 215.846,63.264 220.534 M54.114 222.569 C 54.418 222.956,54.667 223.542,54.667 223.873 C 54.667 224.203,55.087 225.084,55.600 225.830 C 57.689 228.868,56.579 229.675,52.400 228.158 C 50.125 227.332,48.345 227.280,46.938 227.998 C 45.163 228.903,44.253 227.843,45.313 226.105 C 45.839 225.242,45.865 225.231,45.870 225.867 C 45.879 227.051,46.250 227.359,47.252 227.014 C 48.882 226.453,49.816 226.366,50.947 226.670 C 52.390 227.059,53.712 226.803,52.990 226.275 C 52.539 225.946,52.538 225.875,52.961 224.988 C 53.733 223.369,53.337 223.086,51.584 224.008 C 48.686 225.533,44.649 224.359,46.261 222.461 C 46.295 222.421,47.150 222.525,48.161 222.693 C 49.800 222.963,50.160 222.939,51.467 222.467 C 53.428 221.759,53.478 221.761,54.114 222.569 " stroke="none" fill="#241c24" fill-rule="evenodd"></path><path id="path4" d="M37.643 197.267 C 37.679 198.351,37.702 198.399,37.798 197.601 C 37.860 197.088,38.035 196.518,38.188 196.334 C 38.391 196.090,38.349 196.000,38.033 196.000 C 37.688 196.000,37.609 196.258,37.643 197.267 M61.261 203.272 C 61.189 203.458,61.222 204.088,61.335 204.672 L 61.539 205.733 61.569 204.333 C 61.600 202.941,61.508 202.626,61.261 203.272 M62.000 207.013 L 62.800 207.316 61.867 207.490 C 60.955 207.659,60.961 207.664,62.133 207.689 L 63.333 207.716 62.704 207.191 C 62.358 206.903,61.878 206.676,61.637 206.688 C 61.397 206.699,61.560 206.845,62.000 207.013 M73.443 208.467 C 73.547 208.650,73.504 208.800,73.349 208.800 C 73.194 208.800,73.083 209.130,73.103 209.533 C 73.135 210.185,73.152 210.198,73.257 209.651 C 73.349 209.171,73.453 209.101,73.733 209.333 C 74.221 209.738,74.108 208.924,73.612 208.464 C 73.328 208.201,73.293 208.201,73.443 208.467 M62.133 209.867 L 61.200 210.063 62.349 210.098 C 63.055 210.120,63.435 210.030,63.333 209.867 C 63.243 209.720,63.146 209.616,63.118 209.635 C 63.090 209.654,62.647 209.759,62.133 209.867 M74.667 210.267 C 74.322 210.633,74.136 210.933,74.253 210.933 C 74.370 210.933,74.301 211.143,74.099 211.400 C 73.777 211.812,73.783 211.828,74.153 211.540 C 74.484 211.281,74.651 211.281,74.946 211.540 C 75.151 211.720,75.111 211.616,74.857 211.310 C 74.367 210.719,75.051 209.570,75.598 210.066 C 75.719 210.176,75.733 210.117,75.627 209.933 C 75.377 209.498,75.394 209.493,74.667 210.267 M75.584 210.693 C 75.353 211.066,75.935 211.200,76.232 210.842 C 76.453 210.575,76.425 210.489,76.117 210.489 C 75.893 210.489,75.653 210.581,75.584 210.693 M56.043 212.945 C 55.597 213.925,55.682 214.135,56.165 213.243 C 56.390 212.827,56.525 212.436,56.464 212.375 C 56.403 212.314,56.214 212.571,56.043 212.945 M55.923 215.343 C 55.381 216.438,54.995 217.333,55.065 217.333 C 55.244 217.333,57.123 213.568,57.004 213.449 C 56.951 213.396,56.464 214.248,55.923 215.343 M55.243 214.811 C 54.797 215.792,54.882 216.001,55.365 215.110 C 55.590 214.693,55.725 214.303,55.664 214.242 C 55.603 214.181,55.414 214.437,55.243 214.811 M52.546 219.976 C 52.218 220.589,52.861 220.605,53.403 219.997 C 53.657 219.711,53.614 219.715,53.217 220.013 C 52.751 220.362,52.717 220.354,52.875 219.933 C 53.109 219.309,52.888 219.338,52.546 219.976 M61.929 221.333 C 61.929 221.847,61.983 222.057,62.050 221.800 C 62.118 221.543,62.118 221.123,62.050 220.867 C 61.983 220.610,61.929 220.820,61.929 221.333 M63.276 222.267 C 63.278 223.000,63.330 223.268,63.391 222.863 C 63.453 222.458,63.451 221.858,63.388 221.530 C 63.324 221.202,63.274 221.533,63.276 222.267 M48.867 227.384 C 49.123 227.451,49.543 227.451,49.800 227.384 C 50.057 227.317,49.847 227.262,49.333 227.262 C 48.820 227.262,48.610 227.317,48.867 227.384 " stroke="none" fill="#747474" fill-rule="evenodd"></path></g></svg>