<!--?xml version="1.0" encoding="UTF-8"?-->
<svg width="920" height="350" viewBox="0 0 920 350" xmlns="http://www.w3.org/2000/svg">

  <!-- ========================= -->
  <!--  BRICK BLOCK LEFT SIDE    -->
  <!-- ========================= -->
  <rect x="0" y="0" width="160" height="350" fill="#E55010"></rect>
  <pattern id="brick" patternUnits="userSpaceOnUse" width="30" height="20">
      <rect width="30" height="20" fill="#E55010"></rect>
      <rect y="9" width="30" height="2" fill="#ffffff"></rect>
      <rect x="15" width="2" height="9" fill="#ffffff"></rect>
  </pattern>
  <rect x="0" y="0" width="160" height="350" fill="url(#brick)" opacity="0.5"></rect>

  <!-- ========================= -->
  <!--  BULL HEAD OVERLAY        -->
  <!-- ========================= -->
  <path d="M120 250
       C85 260, 55 235, 50 195
       C45 155, 65 120, 100 115
       C90 95, 95 70, 115 65
       C135 60, 150 80, 150 105
       C175 110, 190 140, 180 170
       C170 205, 150 240, 120 250Z" fill="#000000"></path>
  <path d="M105 190 
       C110 180, 125 175, 135 185
       C150 200, 135 220, 115 215Z" fill="white"></path>
  <circle cx="125" cy="186" r="6" fill="white"></circle>

  <!-- ========================= -->
  <!-- GREEN “B” CURVE SHAPE     -->
  <!-- ========================= -->
  <path d="M160 50
       H250
       C320 50, 350 130, 300 160
       C350 185, 330 260, 250 260
       H160
       Z" fill="#006634"></path>

  <!-- ========================= -->
  <!-- WORDMARK “BRISK”          -->
  <!-- ========================= -->
  <text x="320" y="235" font-family="Arial Black, Sans-Serif" font-weight="900" font-size="220" fill="#006634" letter-spacing="8">
    BRISK
  </text>

</svg>
